<svg width="338.6650024414062px" height="120.81007995605468px" xmlns="http://www.w3.org/2000/svg" viewBox="80.66749877929689 14.59496002197266 338.6650024414062 120.81007995605468" style="background: none;" preserveAspectRatio="xMidYMid"><defs><filter id="editing-raise" x="-100%" y="-100%" width="300%" height="300%"><feFlood flood-color="#ffffff" result="flood-surface"></feFlood><feFlood flood-color="#ffffff" result="flood-extrude"></feFlood><feMorphology operator="erode" in="SourceAlpha" radius="1" result="erode"></feMorphology><feConvolveMatrix in="erode" result="shadow" order="11,8" divisor="1" kernelMatrix="0 0 0 1 1 1 1 1 0 0 0 0 0 1 0 0 0 0 0 1 0 0 0 0 1 0 0 0 0 0 1 0 0 0 0 1 0 0 0 0 0 1 0 0 0 0 1 0 0 0 0 0 1 0 0 0 0 0 1 0 0 0 1 0 0 0 0 0 0 1 1 0 1 1 0 0 0 0 0 0 0 0 1 0 0 0 0 0"></feConvolveMatrix><feOffset dx="0" dy="4" in="shadow" result="offset"></feOffset><feGaussianBlur in="offset" stdDeviation="0.2" result="blur"></feGaussianBlur><feComposite operator="in" in="flood-extrude" in2="blur" result="extrude"></feComposite><feMorphology operator="erode" in="SourceAlpha" radius="1" result="erode2"></feMorphology><feConvolveMatrix in="erode2" result="out" order="4,4" divisor="1" kernelMatrix="0 1 1 0 1 0 0 1 1 0 0 1 0 1 1 0 "></feConvolveMatrix><feComposite operator="in" in="flood-surface" in2="out" result="text"></feComposite><feMerge><feMergeNode in="extrude"></feMergeNode><feMergeNode in="text"></feMergeNode></feMerge></filter></defs><g filter="url(#editing-raise)"><g transform="translate(133.52124479413033, 96.98499870300293)"><path d="M26.11-42.69L26.11-42.69L26.11-42.69Q41.79-42.69 41.79-31.62L41.79-31.62L41.79-31.62Q41.79-25.54 37.89-21.89L37.89-21.89L37.89-21.89Q34.05-18.24 27.33-18.24L27.33-18.24L27.33-18.24Q24.19-18.24 21.76-20.03L21.76-20.03L21.76-20.03Q20.61-20.80 19.84-21.82L19.84-21.82L19.84-21.82Q24.51-21.82 26.98-24.67L26.98-24.67L26.98-24.67Q29.44-27.52 29.44-33.09L29.44-33.09L29.44-33.09Q29.44-38.66 23.94-38.66L23.94-38.66L22.40-38.66L22.40-38.66Q22.02-38.66 21.70-38.59L21.70-38.59L14.34 0L0.45 0L8.32-41.92L8.32-41.92Q15.17-42.56 19.14-42.62L19.14-42.62L19.14-42.62Q23.10-42.69 26.11-42.69ZM89.86-10.69L89.86-10.69Q85.63-4.86 81.57-1.79L81.57-1.79L81.57-1.79Q77.50 1.28 73.31 1.28L73.31 1.28L73.31 1.28Q69.12 1.28 67.65 0.45L67.65 0.45L67.65-13.63L67.65-13.63Q64-3.90 57.47-0.13L57.47-0.13L57.47-0.13Q55.10 1.28 52.86 1.28L52.86 1.28L52.86 1.28Q48.58 1.28 46.72 0.45L46.72 0.45L46.72 0.45Q46.27-14.21 45.89-18.27L45.89-18.27L45.89-18.27Q45.50-22.34 45.18-24.83L45.18-24.83L45.18-24.83Q44.54-29.82 42.37-31.87L42.37-31.87L42.37-31.87Q45.12-33.92 48.96-33.92L48.96-33.92L48.96-33.92Q56.38-33.92 57.41-24.70L57.41-24.70L57.41-24.70Q57.66-22.53 57.66-20.22L57.66-20.22L57.66-20.22Q57.66-16.77 56.90-4.74L56.90-4.74L56.90-4.74Q58.43-5.44 60.06-7.97L60.06-7.97L60.06-7.97Q61.70-10.50 63.04-13.95L63.04-13.95L63.04-13.95Q66.05-21.95 66.05-28.86L66.05-28.86L66.05-28.86Q66.05-29.95 65.76-31.10L65.76-31.10L65.76-31.10Q65.47-32.26 65.15-32.58L65.15-32.58L65.15-32.58Q67.39-33.92 70.82-33.92L70.82-33.92L70.82-33.92Q74.24-33.92 75.87-31.58L75.87-31.58L75.87-31.58Q77.50-29.25 77.95-24.96L77.95-24.96L77.95-24.96Q78.46-19.52 78.46-16.26L78.46-16.26L78.46-16.26Q78.46-11.71 78.02-4.99L78.02-4.99L78.02-4.99Q81.22-7.30 83.84-14.85L83.84-14.85L83.84-14.85Q86.46-22.40 86.46-27.78L86.46-27.78L86.46-27.78Q86.46-30.14 86.08-31.55L86.08-31.55L86.08-31.55Q88.19-33.92 91.84-33.92L91.84-33.92L91.84-33.92Q94.08-33.92 95.71-32.70L95.71-32.70L95.71-32.70Q97.34-31.49 97.34-29.22L97.34-29.22L97.34-29.22Q97.34-26.94 96.67-24.51L96.67-24.51L96.67-24.51Q96-22.08 94.91-19.58L94.91-19.58L94.91-19.58Q92.80-14.59 89.86-10.69L89.86-10.69ZM95.87-3.78L95.87-3.78L95.87-3.78Q95.87-6.21 97.76-7.55L97.76-7.55L97.76-7.55Q99.65-8.90 102.34-8.90L102.34-8.90L102.34-8.90Q105.02-8.90 106.66-7.55L106.66-7.55L106.66-7.55Q108.29-6.21 108.29-3.78L108.29-3.78L108.29-3.78Q108.29-1.34 106.46-0.03L106.46-0.03L106.46-0.03Q104.64 1.28 101.95 1.28L101.95 1.28L101.95 1.28Q99.26 1.28 97.57-0.03L97.57-0.03L97.57-0.03Q95.87-1.34 95.87-3.78ZM161.98-10.69L161.98-10.69Q157.76-4.86 153.70-1.79L153.70-1.79L153.70-1.79Q149.63 1.28 145.44 1.28L145.44 1.28L145.44 1.28Q141.25 1.28 139.78 0.45L139.78 0.45L139.78-13.63L139.78-13.63Q136.13-3.90 129.60-0.13L129.60-0.13L129.60-0.13Q127.23 1.28 124.99 1.28L124.99 1.28L124.99 1.28Q120.70 1.28 118.85 0.45L118.85 0.45L118.85 0.45Q118.40-14.21 118.02-18.27L118.02-18.27L118.02-18.27Q117.63-22.34 117.31-24.83L117.31-24.83L117.31-24.83Q116.67-29.82 114.50-31.87L114.50-31.87L114.50-31.87Q117.25-33.92 121.09-33.92L121.09-33.92L121.09-33.92Q128.51-33.92 129.54-24.70L129.54-24.70L129.54-24.70Q129.79-22.53 129.79-20.22L129.79-20.22L129.79-20.22Q129.79-16.77 129.02-4.74L129.02-4.74L129.02-4.74Q130.56-5.44 132.19-7.97L132.19-7.97L132.19-7.97Q133.82-10.50 135.17-13.95L135.17-13.95L135.17-13.95Q138.18-21.95 138.18-28.86L138.18-28.86L138.18-28.86Q138.18-29.95 137.89-31.10L137.89-31.10L137.89-31.10Q137.60-32.26 137.28-32.58L137.28-32.58L137.28-32.58Q139.52-33.92 142.94-33.92L142.94-33.92L142.94-33.92Q146.37-33.92 148-31.58L148-31.58L148-31.58Q149.63-29.25 150.08-24.96L150.08-24.96L150.08-24.96Q150.59-19.52 150.59-16.26L150.59-16.26L150.59-16.26Q150.59-11.71 150.14-4.99L150.14-4.99L150.14-4.99Q153.34-7.30 155.97-14.85L155.97-14.85L155.97-14.85Q158.59-22.40 158.59-27.78L158.59-27.78L158.59-27.78Q158.59-30.14 158.21-31.55L158.21-31.55L158.21-31.55Q160.32-33.92 163.97-33.92L163.97-33.92L163.97-33.92Q166.21-33.92 167.84-32.70L167.84-32.70L167.84-32.70Q169.47-31.49 169.47-29.22L169.47-29.22L169.47-29.22Q169.47-26.94 168.80-24.51L168.80-24.51L168.80-24.51Q168.13-22.08 167.04-19.58L167.04-19.58L167.04-19.58Q164.93-14.59 161.98-10.69L161.98-10.69ZM173.98-1.92L173.98-1.92L173.98-1.92Q172.48-3.58 171.81-6.21L171.81-6.21L171.81-6.21Q171.14-8.83 171.14-13.12L171.14-13.12L171.14-13.12Q171.14-17.41 172.61-21.31L172.61-21.31L172.61-21.31Q174.08-25.22 176.77-28.03L176.77-28.03L176.77-28.03Q182.27-33.92 191.36-33.92L191.36-33.92L191.36-33.92Q194.62-33.92 196.99-32.83L196.99-32.83L207.94-33.92L203.20-8.96L203.20-8.96Q203.01-8.19 203.01-6.78L203.01-6.78L203.01-6.78Q203.01-5.38 203.87-4.48L203.87-4.48L203.87-4.48Q204.74-3.58 206.02-3.46L206.02-3.46L206.02-3.46Q205.38-1.28 203.04 0L203.04 0L203.04 0Q200.70 1.28 198.08 1.28L198.08 1.28L198.08 1.28Q195.46 1.28 193.70 0.29L193.70 0.29L193.70 0.29Q191.94-0.70 191.42-2.37L191.42-2.37L191.42-2.37Q190.40-0.77 188.22 0.26L188.22 0.26L188.22 0.26Q186.05 1.28 183.14 1.28L183.14 1.28L183.14 1.28Q180.22 1.28 177.86 0.51L177.86 0.51L177.86 0.51Q175.49-0.26 173.98-1.92ZM187.49-27.90L187.49-27.90L187.49-27.90Q186.75-26.75 186.11-24.80L186.11-24.80L186.11-24.80Q185.47-22.85 184.42-17.63L184.42-17.63L184.42-17.63Q183.36-12.42 183.36-8.70L183.36-8.70L183.36-8.70Q183.36-4.99 183.94-3.90L183.94-3.90L183.94-3.90Q184.51-2.82 185.54-2.82L185.54-2.82L185.54-2.82Q187.58-2.82 189.09-4.77L189.09-4.77L189.09-4.77Q190.59-6.72 191.17-10.18L191.17-10.18L194.56-28.93L194.56-28.93Q193.22-30.08 191.65-30.08L191.65-30.08L191.65-30.08Q190.08-30.08 189.15-29.57L189.15-29.57L189.15-29.57Q188.22-29.06 187.49-27.90ZM212.42-6.40L212.42-6.40L212.42-6.40Q212.42-8.13 213.31-12.48L213.31-12.48L216.70-29.76L212.93-29.76L213.18-31.68L213.18-31.68Q220.86-33.98 228.29-39.62L228.29-39.62L231.36-39.62L229.82-32.64L234.82-32.64L234.24-29.76L229.31-29.76L226.05-12.48L226.05-12.48Q225.22-8.51 225.22-7.17L225.22-7.17L225.22-7.17Q225.22-4.10 227.90-3.46L227.90-3.46L227.90-3.46Q227.26-1.28 224.96 0L224.96 0L224.96 0Q222.66 1.28 219.39 1.28L219.39 1.28L219.39 1.28Q216.13 1.28 214.27-0.77L214.27-0.77L214.27-0.77Q212.42-2.82 212.42-6.40Z"></path></g></g><style>text {
  font-size: 64px;
  font-family: Arial Black;
  dominant-baseline: central;
  text-anchor: middle;
}</style></svg>